<svg width="520" height="520" xmlns="http://www.w3.org/2000/svg"><g fill="none" fill-rule="evenodd"><path fill="#D22136" fill-rule="nonzero" d="m94.282 151.03 21.312-23.368v84.36l-21.312 23.72"/><path fill="#FF2540" fill-rule="nonzero" d="M32.858 127.662 10 151.03h84.282l21.313-23.37"/><path fill="#3B3B6D" d="M10 151.03h84.282v84.713H10z"/><path fill="#D22136" fill-rule="nonzero" d="m94.282 308.594 21.312-23.369v84.361l-21.312 23.72"/><path fill="#FF2540" fill-rule="nonzero" d="M32.858 285.226 10 308.595h84.282l21.313-23.37"/><path fill="#3B3B6D" d="M10 308.594h84.282v84.712H10zM245.35 77.473l73.5 26.752-129.157 354.858-73.501-26.752z"/><path fill="#FF2540" fill-rule="nonzero" d="m245.35 77.473 43.607-11.831 63.302 23.027-33.409 15.556z"/><path fill="#D22136" fill-rule="nonzero" d="m318.85 104.225 33.397-15.56-128.17 352.144-34.384 18.274"/><path fill="#3B3B6D" d="m403.09 77.473 73.5 26.752-129.157 354.858-73.501-26.752z"/><path fill="#FF2540" fill-rule="nonzero" d="m403.09 77.473 43.607-11.83 63.302 23.026-33.409 15.556z"/><path fill="#D22136" fill-rule="nonzero" d="m476.59 104.225 33.397-15.56-128.17 352.144-34.384 18.274"/></g></svg>
